<svg xmlns="http://www.w3.org/2000/svg" viewBox="0 0 130 100">
  <defs><filter id="s"><feDropShadow dx="0" dy="1" stdDeviation="1.5" flood-opacity="0.12"/></filter></defs>
  <rect x="6" y="4" width="118" height="82" rx="7" fill="white" stroke="#e0e0e0" stroke-width="1.2" filter="url(#s)"/>
  <rect x="6" y="4" width="118" height="9" rx="7" fill="#27ae60"/>
  <rect x="6" y="9" width="118" height="4" fill="#27ae60"/>
  <!-- motor diesel lado izq -->
  <rect x="14" y="20" width="46" height="52" rx="5" fill="#5d4037" stroke="#4e342e" stroke-width="1.5"/>
  <line x1="20" y1="24" x2="20" y2="68" stroke="#6d4c41" stroke-width="2"/>
  <line x1="28" y1="24" x2="28" y2="68" stroke="#6d4c41" stroke-width="2"/>
  <line x1="36" y1="24" x2="36" y2="68" stroke="#6d4c41" stroke-width="2"/>
  <line x1="44" y1="24" x2="44" y2="68" stroke="#6d4c41" stroke-width="2"/>
  <line x1="52" y1="24" x2="52" y2="68" stroke="#6d4c41" stroke-width="2"/>
  <!-- alternador -->
  <circle cx="90" cy="46" r="24" fill="none" stroke="#27ae60" stroke-width="2.5"/>
  <text x="90" y="52" font-family="Arial" font-size="18" font-weight="bold" text-anchor="middle" fill="#27ae60">G</text>
  <!-- panel control -->
  <rect x="64" y="70" width="48" height="10" rx="2" fill="#4e342e"/>
  <circle cx="74" cy="75" r="3" fill="#4caf50"/>
  <circle cx="84" cy="75" r="3" fill="#f44336" opacity="0.5"/>
  <circle cx="94" cy="75" r="3" fill="#ff9800"/>
  <text x="65" y="94" font-family="Arial" font-size="8" font-weight="600" text-anchor="middle" fill="#555">Planta Eléctrica</text>
  <!-- pins -->
  <line x1="0" y1="38" x2="6" y2="38" stroke="#e74c3c" stroke-width="2.5"/>
  <circle cx="3" cy="38" r="4.5" fill="#e74c3c"/>
  <text x="3" y="33" font-family="Arial" font-size="6" font-weight="bold" text-anchor="middle" fill="#e74c3c">L</text>
  <line x1="0" y1="54" x2="6" y2="54" stroke="#3498db" stroke-width="2.5"/>
  <circle cx="3" cy="54" r="4.5" fill="#3498db"/>
  <text x="3" y="50" font-family="Arial" font-size="6" font-weight="bold" text-anchor="middle" fill="#3498db">N</text>
  <line x1="124" y1="46" x2="130" y2="46" stroke="#27ae60" stroke-width="2.5"/>
  <circle cx="127" cy="46" r="4.5" fill="#27ae60"/>
  <text x="127" y="41" font-family="Arial" font-size="6" font-weight="bold" text-anchor="middle" fill="#27ae60">PE</text>
</svg>
